<svg id="visual" viewBox="0 0 960 540" width="960" height="540" xmlns="http://www.w3.org/2000/svg" xmlns:xlink="http://www.w3.org/1999/xlink" version="1.1"><rect x="0" y="0" width="960" height="540" fill="#FFFFFF"></rect><path d="M0 235L16 244.2C32 253.3 64 271.7 96 273C128 274.3 160 258.7 192 247C224 235.3 256 227.7 288 233.5C320 239.3 352 258.7 384 261C416 263.3 448 248.7 480 248.5C512 248.3 544 262.7 576 271.7C608 280.7 640 284.3 672 281.7C704 279 736 270 768 264C800 258 832 255 864 245.8C896 236.7 928 221.3 944 213.7L960 206L960 541L944 541C928 541 896 541 864 541C832 541 800 541 768 541C736 541 704 541 672 541C640 541 608 541 576 541C544 541 512 541 480 541C448 541 416 541 384 541C352 541 320 541 288 541C256 541 224 541 192 541C160 541 128 541 96 541C64 541 32 541 16 541L0 541Z" fill="#69dbfa"></path><path d="M0 360L16 353.8C32 347.7 64 335.3 96 333.3C128 331.3 160 339.7 192 334.2C224 328.7 256 309.3 288 304.3C320 299.3 352 308.7 384 312.8C416 317 448 316 480 320.7C512 325.3 544 335.7 576 339C608 342.3 640 338.7 672 333.2C704 327.7 736 320.3 768 322.2C800 324 832 335 864 333.7C896 332.3 928 318.7 944 311.8L960 305L960 541L944 541C928 541 896 541 864 541C832 541 800 541 768 541C736 541 704 541 672 541C640 541 608 541 576 541C544 541 512 541 480 541C448 541 416 541 384 541C352 541 320 541 288 541C256 541 224 541 192 541C160 541 128 541 96 541C64 541 32 541 16 541L0 541Z" fill="#008ff9"></path><path d="M0 422L16 417.3C32 412.7 64 403.3 96 402.5C128 401.7 160 409.3 192 421.2C224 433 256 449 288 451.5C320 454 352 443 384 434.2C416 425.3 448 418.7 480 413.7C512 408.7 544 405.3 576 402.8C608 400.3 640 398.7 672 400.3C704 402 736 407 768 412.2C800 417.3 832 422.7 864 425.5C896 428.3 928 428.7 944 428.8L960 429L960 541L944 541C928 541 896 541 864 541C832 541 800 541 768 541C736 541 704 541 672 541C640 541 608 541 576 541C544 541 512 541 480 541C448 541 416 541 384 541C352 541 320 541 288 541C256 541 224 541 192 541C160 541 128 541 96 541C64 541 32 541 16 541L0 541Z" fill="#2e24c7"></path></svg>